# xmcd
#
# Track frame offsets: 
#        150
#        20399
#        40126
#        59959
#        79658
#        91949
#        109915
#        133296
#        165462
#        186385
#        204043
#        219263
#
# Disc length: 3236 seconds
#
# Revision: 3
# Processed by: cddbd v1.4PL0 Copyright (c) Steve Scherf et al.
# Submitted via: ExactAudioCopy v0.90b4
#
DISCID=a30ca20c,a90ca20c
DTITLE=Ana Popovic - Hush!
DYEAR=2001
DGENRE=Rock
TTITLE0=Love Forever
TTITLE1=Mended
TTITLE2=Hometown
TTITLE3=I Won't Let You Down
TTITLE4=The Hustle Is On
TTITLE5=Downtown
TTITLE6=How Lonely Can A Woman Get
TTITLE7=Walk Away
TTITLE8=Girl Of Many Words
TTITLE9=Minute 'Till Dawn
TTITLE10=Bring Your Fine Self Home
TTITLE11=How The Mighty Have Fallen
EXTD=
EXTT0=
EXTT1=
EXTT2=
EXTT3=
EXTT4=
EXTT5=
EXTT6=
EXTT7=
EXTT8=
EXTT9=
EXTT10=Duet with Bernard Allison
EXTT11=
PLAYORDER=
